<svg id="Layer_1" data-name="Layer 1" xmlns="http://www.w3.org/2000/svg" viewBox="0 0 424.88 473.79"><defs><style>.cls-1{fill:#8246ff;}</style></defs><path class="cls-1" d="M383.16,16.46H144.07A93,93,0,0,0,51.22,109.3c0,310.15-.49,288.9.66,293.19a92.84,92.84,0,0,0,185.55-5.08V357.09h46.25c81.13,0,118.44-102.43,55.27-154.42,13.83,0,45.81.27,49.31-.67a92.84,92.84,0,0,0-5.1-185.54Zm-32,253.46v.1A67.47,67.47,0,0,1,283.7,337.5h0c-42.5,0-125.34-.45-141.27,0-66.84,1.92-71.6,57.63-71.6,57.63V144.81s4.76,55.71,71.6,57.63c16.45.47,52.88,0,141.27,0h0A67.47,67.47,0,0,1,351.18,269.92Z" transform="translate(-51.12 -16.46)"/></svg>