<svg id="Layer_1" data-name="Layer 1" xmlns="http://www.w3.org/2000/svg" viewBox="0 0 478.71 202.79"><defs><style>.cls-1{fill:#8246ff;}</style></defs><path class="cls-1" d="M156.24,131H53.9A39.79,39.79,0,0,0,14.16,170.7c0,132.75-.21,123.65.29,125.49A39.73,39.73,0,0,0,93.86,294V276.76h19.8c34.73,0,50.69-43.85,23.66-66.1,5.92,0,19.6.12,21.1-.28A39.74,39.74,0,0,0,156.24,131ZM142.55,239.45v0a28.88,28.88,0,0,1-28.88,28.88h0c-18.19,0-53.65-.19-60.47,0C24.58,269.19,22.54,293,22.54,293V185.9s2,23.84,30.65,24.66c7,.2,22.64,0,60.47,0h0A28.88,28.88,0,0,1,142.55,239.45Z" transform="translate(-14.12 -130.96)"/><path d="M198.23,310.25q4.28,5.53,14.45,5.53,13.2,0,16.06-9.28c.72-2,2.32-3,4.82-3h11.06a8.23,8.23,0,0,1,4.28.89c.84.48,1.25,1.55,1.25,3.21a18.82,18.82,0,0,1-2.14,8,27,27,0,0,1-5.17,7.5A33.33,33.33,0,0,1,230,331a54,54,0,0,1-17.49,2.68q-19.08,0-29.44-10.71-10.35-10.53-10.35-30.69V278.31q0-20.88,10.17-32.12T212.33,235q19.26,0,29.08,10.35t9.81,31.05v8.38c0,2-.35,3.39-1.07,4.11s-2.26,1.07-4.64,1.07H193.77l.18,1.43Q194,304.72,198.23,310.25Zm.18-52.46q-4.47,5.18-4.64,16.77h35.86q0-11.42-3.92-16.59-4.11-5.36-13-5.35l-.35.17Q202.69,252.79,198.41,257.79Z" transform="translate(-14.12 -130.96)"/><path d="M338.3,243.52q7.32,8.73,7.32,23.73v58.52c0,2.15-.36,3.57-1.07,4.29s-2.2,1.07-4.46,1.07h-9.82c-2.26,0-3.74-.36-4.46-1.07s-1.07-2.14-1.07-4.29V270.46q0-8.38-3.21-12.67t-12-4.28q-8.56,0-13.38,5.35t-4.82,14.63v52.28c0,2.15-.35,3.57-1.07,4.29s-2.2,1.07-4.46,1.07H276c-2.26,0-3.75-.36-4.46-1.07s-1.07-2.14-1.07-4.29V242.62c0-2.14.35-3.57,1.07-4.28s2.26-1.07,4.64-1.07h9.45c2.38,0,3.93.36,4.64,1.07s1.07,2.14,1.07,4.28v3.75A25.89,25.89,0,0,1,302.08,238a37.12,37.12,0,0,1,15-3h-1.25Q331,235,338.3,243.52Z" transform="translate(-14.12 -130.96)"/><path d="M425,243.16v-33.9c0-2,.36-3.39,1.07-4.11s2.26-1.07,4.64-1.07h9.82c2.37,0,3.92.36,4.64,1.07s1.07,2.08,1.07,4.11v84.57q0,19.28-10.35,29.45-10.53,10.17-30,10.17-19.1,0-29.8-10.17t-10.71-28.37V277.42q0-20.52,9.46-31.59Q384.17,235,402.18,235v.18Q417,235.13,425,243.16ZM405.93,316q19.27,0,19.27-24.45V278q0-12.3-4.82-18.55t-14.27-6.25q-19.46,0-19.45,24.45v13.74l-.18.17Q386.48,316,405.93,316Z" transform="translate(-14.12 -130.96)"/><path class="cls-1" d="M488.9,306.33c2.62,2.25,3.93,5.47,3.93,9.63v4.28q0,6.25-3.93,9.64t-10.7,3.39q-6.6,0-10.71-3.57-3.93-3.39-3.92-9.64v-4.28q0-6.24,3.92-9.63,4.11-3.57,10.71-3.57v.35Q485,302.93,488.9,306.33Z" transform="translate(-14.12 -130.96)"/></svg>